<?xml version="1.0" encoding="utf-8"?>
<!-- Generator: Adobe Illustrator 22.1.0, SVG Export Plug-In . SVG Version: 6.00 Build 0)  -->
<svg version="1.2" baseProfile="tiny" id="Layer_1" xmlns="http://www.w3.org/2000/svg" xmlns:xlink="http://www.w3.org/1999/xlink"
	 x="0px" y="0px" viewBox="0 0 5000 5000" xml:space="preserve">
<rect fill="#FFFFFF" width="5000" height="5000"/>
<g>
	<g>
		<path d="M3731.3,2307.1c-12.4-79.2-32.7-157.7-60.3-233.2c-27.3-74.8-62-147.4-103-215.8c-41.1-68.4-88.9-133-142.1-192.3
			c-53.8-59.8-113.5-114.5-177.6-162.7c-133.4-100.2-283.7-171.7-447-212.4c-163.2-40.7-329.5-48.2-494.3-22.3
			c-79.2,12.4-157.6,32.7-233.2,60.3c-74.8,27.3-147.4,62-215.7,103c-68.3,41.1-133,88.9-192.2,142.1
			c-59.8,53.8-114.5,113.5-162.7,177.6c-100.2,133.4-171.6,283.8-212.3,447c-40.7,163.2-48.2,329.5-22.4,494.3
			c12.4,79.2,32.7,157.7,60.3,233.2c27.3,74.8,61.9,147.4,103,215.7c41.1,68.4,88.9,133,142.1,192.3
			c53.7,59.8,113.5,114.5,177.6,162.7c133.3,100.2,283.7,171.7,446.8,212.4c99.9,24.9,200.9,37.4,302.1,37.4
			c64.2,0,128.4-5,192.3-15.1c79.2-12.4,157.7-32.7,233.2-60.3c74.8-27.3,147.4-62,215.8-103c68.4-41.1,133-88.9,192.3-142.1
			c59.8-53.8,114.5-113.5,162.7-177.6c50.1-66.7,93-137.6,128.5-212.3c35.5-74.7,63.5-153.1,83.9-234.7
			C3749.7,2638.3,3757.2,2472,3731.3,2307.1z M3670.2,2791.8c-136.6,547.8-629.8,914.5-1170.5,914.5c-96.3,0-194.1-11.6-291.7-35.9
			c-312.5-78-576-273-741.9-549.1c-165.9-276.2-214.3-600.4-136.4-913c77.9-312.6,272.8-576.2,549-742.2
			c190.1-114.2,402.9-172.8,619-172.8c97.9,0,196.4,12,293.8,36.3c547.8,136.5,914.5,629.8,914.5,1170.4
			C3706.2,2596.4,3694.6,2694.2,3670.2,2791.8z"/>
	</g>
	<g>
		<path d="M2995.8,2474.9c33.9-36.4,55.7-85.7,64.7-146.7c6.4-42.5,3.4-82.3-8.8-118.3c-11.4-33.7-31.2-64.8-58.8-92.7
			c-43.9-44.3-108.9-81.8-198.1-114.2l55.6-222.8L2677,1737l-53.7,215.3c-22.9-5.6-46-10.9-68.8-16.1l53.9-216.3l-173.3-43.2
			l-55.2,221.4c-16.5-3.8-32.2-7.4-47.6-11.1l0.1-0.6l-223.8-55.9l-45.6,182.9l19.9,4.6c18.4,4.2,37.8,8.8,54.2,12.7l-0.8,0.5
			l43.9,11c33.6,8.4,48.8,26.2,47.7,55.9l-67.1,269.2l0,0l-83.1,333.1c-9.8,22.8-26.2,21.7-37.8,18.8l-50.3-12.4l0.4,0.5
			c-14.9-3.8-31.6-8.2-47.5-12.5l-16.6-4.4l-83.1,191.5l198,49.4c19.5,4.9,39,10,57.9,14.9c6.2,1.6,12.4,3.2,18.7,4.9l-55.7,223.8
			l173.2,43.2l55-220.9c21.6,5.8,44,11.6,68.5,17.8l-55,220.2l173.4,43.2l56-224.3c55.1,9.8,102.8,15,145.4,16.1
			c54.5,1.3,100.9-4.1,141.8-16.7c92.3-28.4,155-93,191.5-197.4c14.9-42.7,22.8-82.7,23.5-118.9c0.6-35.4-5.6-68.4-18.6-98
			c-18.8-42.9-51.2-79.4-98.6-110.7C2948.4,2515.6,2974.5,2497.7,2995.8,2474.9z M2864.4,2503.4l-52.8,12.2l48,25
			c128.6,67,163.7,160.1,114,302c-32.1,91.6-86.2,148-165.5,172.4c-69.2,21.3-160.2,20.1-286.5-3.8l-18.5-3.5l-55.4,222.1
			l-95.7-23.9l54.9-220.1l-19.4-4.9c-39.9-10-73.8-18.8-106.8-27.8l-19.7-5.4l-55.2,221.7l-95.6-23.9l55.7-223.5l-19.3-4.9
			c-12.5-3.2-25.3-6.5-37.7-9.8c-19-4.9-38.6-10.1-58.3-15l-152.2-38l50.6-116.7c9,2.4,20.5,5.4,32.1,8.4
			c14.2,3.7,25.6,6.6,33.9,8.6c5.1,1.2,8.9,2.1,11.8,2.7c1.8,0.4,3.2,0.6,4.3,0.8c0.7,0.1,1.3,0.2,2,0.2c37.2,8.2,68-8.3,82.5-44.5
			l0.5-1.3l88.3-354.1l-3.9-1l0.3-1l3.8,1l63.3-253.7l0.1-1.9c1.2-21.6-3.3-40.7-13.4-56.6c-12.7-20-33.6-34-62-41.6
			c-2.2-1-4.3-1.6-5.9-2.1c-2.8-0.8-6.7-1.9-11.8-3.2c-8.2-2.1-19.6-4.9-33.9-8.3c-10.3-2.4-20.6-4.9-29.1-6.8l26.1-104.6
			l147.4,36.8l-0.2,0.7l18.8,4.7c27.6,6.9,55.4,13.2,86.3,20.3l19.1,4.4l55-220.6l95.7,23.9l-54.1,217.1l19.9,4.5
			c35.4,8.1,71.9,16.4,107.4,25.3l19.4,4.8l53.7-215.2l95.7,23.9l-54.7,219.4l17.3,6c92.3,31.8,157.8,68,200.1,110.7
			c48.5,48.9,66.9,106.7,56.4,176.9v0C3006,2423.3,2954.8,2482.5,2864.4,2503.4z"/>
		<path d="M2779.9,2221.6c-22-35.5-61.4-64.1-120.6-87.2c-47.3-18.5-97-29.5-133.3-37.6c-10.6-2.3-19.8-4.4-27.3-6.2l-19.4-4.8
			l-76.7,307.5l19.4,4.8c6.2,1.5,13.4,3.5,21.7,5.7c46.1,12.3,117.3,31.3,184.1,31.3c38.7,0,76-6.4,106.1-24.1
			c30.8-18.1,51.1-46.1,60.3-83.3v0C2804.1,2288.6,2799.2,2252.9,2779.9,2221.6z M2755.5,2318c-6.7,26.7-20.4,45.8-41.8,58.5
			c-28.6,16.8-71.4,22.3-127.3,16.2c-49.2-5.4-97.3-18.2-132.4-27.6c-1-0.3-2-0.5-3-0.8l57.4-230.4c2.8,0.6,5.8,1.3,8.8,2
			c65.8,14.6,188.3,41.7,228.6,106.8c8.9,14.4,13.3,29.9,13.3,47C2759.2,2298.7,2758,2308.1,2755.5,2318z"/>
		<path d="M2737.1,2650.3c-25.3-41-72.4-74.4-143.9-102c-57.6-22.3-118.3-35.9-162.6-45.8c-12.7-2.8-23.7-5.3-32.6-7.5l-19.4-4.9
			l-83.6,335.1l19.4,4.8c7.4,1.8,15.9,4.1,25.8,6.7c57.2,15.1,146,38.6,227.3,38.6c45.2,0,88.1-7.3,121.9-27.3
			c32.5-19.2,53.8-48.4,63.4-86.7C2762.8,2720.8,2757.5,2683.5,2737.1,2650.3z M2713.9,2751.5L2713.9,2751.5
			c-7,27.9-21.7,48.2-45,62c-33.9,20.1-86.2,26.2-155.6,18.4c-60.5-6.9-122.2-23.2-163.1-34c-2.4-0.6-4.7-1.3-7-1.9l64.3-257.8
			c4.4,1,9.1,2.1,14.1,3.2c81.6,18.3,233.5,52.4,281.3,129.8C2717.8,2695.3,2721.4,2721.5,2713.9,2751.5z"/>
	</g>
</g>
</svg>
